<?xml version="1.0" standalone="no"?>
<!DOCTYPE svg PUBLIC "-//W3C//DTD SVG 20010904//EN"
 "http://www.w3.org/TR/2001/REC-SVG-20010904/DTD/svg10.dtd">
<svg version="1.0" xmlns="http://www.w3.org/2000/svg"
 width="499.000000pt" height="499.000000pt" viewBox="0 0 499.000000 499.000000"
 preserveAspectRatio="xMidYMid meet">

<g transform="translate(0.000000,499.000000) scale(0.100000,-0.100000)"
fill="#000000" stroke="none">
<path d="M2145 4829 c-188 -23 -347 -58 -430 -94 -16 -7 -41 -16 -55 -20 -35
-11 -147 -86 -196 -133 -23 -21 -56 -69 -75 -107 l-34 -70 -2 -302 -3 -303
570 0 570 0 5 -23 c4 -13 5 -50 3 -82 l-3 -60 -464 -5 c-354 -4 -459 -8 -440
-16 17 -8 44 -9 89 -2 75 11 130 6 255 -23 144 -33 147 -34 146 -44 -1 -7
-195 -11 -559 -12 -306 -1 -654 -2 -773 -2 l-216 -1 -49 -37 -49 -38 625 -6
c344 -3 1062 -7 1595 -9 l970 -3 0 449 c0 344 -3 456 -13 478 -10 22 -16 26
-24 18 -7 -7 -31 -12 -55 -12 -24 0 -43 -5 -43 -11 0 -15 -64 -39 -103 -39
-20 0 -50 10 -71 25 -25 17 -45 23 -61 19 -14 -3 -41 2 -67 14 -24 11 -56 24
-73 28 -60 18 -57 104 5 127 18 7 30 19 30 29 0 27 45 52 80 45 23 -5 35 -1
53 17 12 12 31 27 41 33 10 6 16 15 12 21 -11 18 -220 94 -311 113 -171 35
-340 49 -580 48 -126 -1 -261 -5 -300 -10z m-346 -178 c18 -35 37 -51 62 -51
5 0 21 18 35 40 31 46 44 51 44 15 0 -34 27 -85 45 -85 8 0 30 14 50 31 20 18
38 29 41 27 2 -3 -1 -26 -8 -51 -9 -37 -9 -48 1 -61 15 -18 63 -21 93 -5 29
15 35 3 11 -24 -40 -43 -46 -64 -23 -87 11 -11 32 -20 48 -20 49 0 57 -15 18
-34 -39 -18 -59 -46 -51 -69 3 -7 24 -24 46 -36 45 -26 43 -41 -5 -41 -19 0
-44 -8 -56 -18 -20 -16 -21 -21 -11 -41 7 -12 21 -31 32 -42 24 -24 25 -44 2
-34 -43 17 -89 17 -103 0 -11 -14 -12 -25 -2 -62 7 -25 11 -48 8 -50 -2 -2
-16 7 -31 21 -59 55 -91 42 -104 -40 l-7 -49 -27 43 c-15 24 -34 45 -42 48
-23 9 -54 -15 -72 -54 -16 -35 -17 -36 -20 -12 -8 49 -24 88 -39 94 -18 7 -49
-7 -81 -37 -26 -24 -29 -14 -12 44 9 30 9 42 -1 54 -14 17 -57 20 -96 5 -39
-15 -41 -5 -5 35 17 20 31 45 31 56 0 21 -34 39 -75 39 -39 0 -37 16 6 44 49
33 49 60 -1 94 -48 32 -48 42 -2 42 39 0 72 19 72 41 0 16 -20 51 -44 78 -20
23 -20 24 -1 16 11 -4 39 -9 62 -12 53 -7 70 17 53 75 -14 53 -13 58 13 35 32
-30 63 -44 81 -37 15 6 36 61 36 97 0 26 8 21 29 -22z m1270 -401 c29 -22 57
-40 62 -40 5 0 9 -8 9 -18 0 -13 -14 -25 -42 -37 -24 -9 -51 -21 -60 -26 -22
-11 -53 -12 -76 0 -9 5 -37 15 -62 23 -47 16 -64 43 -38 62 8 6 17 19 21 29 4
10 17 17 34 17 15 0 37 7 47 15 30 23 47 19 105 -25z m458 14 c14 -14 40 -34
57 -43 17 -10 31 -24 31 -31 0 -15 -52 -48 -78 -49 -9 -1 -26 -6 -37 -13 -29
-18 -164 29 -168 59 -4 25 38 73 64 73 11 0 28 7 38 15 29 22 64 18 93 -11z
m-468 -520 c29 -15 60 -41 75 -65 15 -21 31 -39 37 -39 6 0 22 -9 36 -20 14
-11 33 -20 41 -20 17 0 52 -28 52 -42 0 -4 -144 -8 -321 -8 l-320 0 3 28 c2
19 12 31 35 42 17 8 34 25 38 37 3 13 17 30 31 39 20 14 29 15 51 5 23 -11 29
-9 57 18 59 57 111 64 185 25z"/>
<path d="M3800 3571 c0 -89 7 -98 73 -86 23 5 45 1 65 -9 19 -10 33 -12 37 -6
10 16 34 12 66 -12 30 -22 39 -23 301 -26 l269 -3 -16 25 c-28 43 -119 114
-196 153 l-74 38 -262 3 -263 3 0 -80z"/>
<path d="M1458 3623 c7 -3 16 -2 19 1 4 3 -2 6 -13 5 -11 0 -14 -3 -6 -6z"/>
<path d="M1625 3304 c-29 -9 -69 -12 -95 -9 -25 3 -83 -1 -130 -9 -47 -9 -142
-16 -212 -16 -102 0 -128 -3 -128 -14 0 -7 11 -39 25 -71 33 -73 24 -86 -10
-14 l-25 54 0 -57 c0 -36 4 -58 13 -61 6 -2 94 -2 195 0 148 4 182 2 183 -9 4
-65 12 -95 34 -124 14 -18 25 -37 25 -43 0 -7 59 -11 181 -11 166 0 183 -2
206 -20 l26 -20 -636 0 c-350 0 -638 4 -641 9 -6 10 136 20 319 23 101 2 111
3 46 5 l-84 4 24 25 c18 19 24 39 27 89 4 56 7 65 23 65 16 0 19 8 19 46 0 25
-4 43 -8 40 -5 -3 -30 -41 -55 -85 -26 -44 -51 -82 -56 -85 -10 -7 56 114 96
175 12 19 23 38 23 42 0 4 -32 7 -71 7 -76 0 -90 -19 -16 -21 l42 -1 -40 -9
c-48 -10 -431 -12 -540 -2 l-78 6 34 18 34 18 -46 1 -46 0 -32 -72 c-29 -65
-58 -160 -82 -273 -15 -70 -39 -307 -39 -389 0 -194 52 -555 95 -661 82 -202
138 -288 251 -385 67 -59 206 -120 270 -120 28 0 36 5 50 35 9 20 16 48 16 63
0 36 15 52 47 51 14 -1 40 4 56 11 17 7 36 12 43 11 7 -1 15 5 18 14 3 8 12
15 18 15 7 0 21 17 33 38 19 37 27 40 70 27 17 -6 30 1 58 30 l35 38 0 121 c0
67 5 153 10 191 11 75 38 174 52 190 4 5 8 17 8 27 0 31 89 155 152 212 77 70
183 121 293 141 22 4 156 7 297 6 l257 -2 16 30 c8 17 28 37 43 45 15 8 37 32
49 53 35 62 56 77 100 70 21 -4 51 -16 67 -28 35 -26 101 -32 102 -9 1 35 17
59 54 84 47 31 56 32 69 7 6 -10 20 -21 32 -24 17 -5 24 0 32 24 6 16 17 29
24 29 6 0 19 10 27 21 8 12 41 32 72 45 32 13 62 30 67 39 7 13 11 14 24 3 12
-10 17 -9 28 5 7 9 16 17 20 17 5 0 16 7 26 16 16 14 20 14 47 0 17 -9 34 -21
37 -26 4 -6 16 4 29 22 15 22 33 35 56 40 132 26 158 34 179 50 35 26 82 32
124 14 l37 -15 0 28 c0 15 3 56 6 90 l7 61 -164 -2 c-111 -1 -146 -3 -109 -8
51 -6 49 -7 -35 -9 -49 -1 -108 -6 -130 -10 l-40 -9 40 -2 c22 -1 54 -5 70 -9
34 -7 -453 -3 -502 5 -17 2 -34 11 -37 19 -8 22 -304 22 -312 0 -5 -13 -37
-15 -208 -13 -111 1 -174 4 -141 7 70 7 53 20 -28 22 -41 1 -47 3 -27 9 17 6
0 8 -56 9 -57 1 -83 5 -87 14 -6 16 -95 37 -150 36 -23 -1 -64 -8 -92 -15z
m201 -24 c20 -8 24 -16 24 -50 0 -37 -2 -40 -27 -40 -16 0 -45 3 -65 6 -31 5
-37 11 -40 33 -3 23 -9 27 -63 37 -61 11 -61 11 10 28 27 6 131 -3 161 -14z
m880 -68 c-9 -2 -25 -1 -34 3 -15 6 -15 8 3 15 12 4 26 3 34 -4 12 -9 11 -12
-3 -14z m-236 8 c0 -5 -11 -10 -25 -10 -14 0 -25 5 -25 10 0 6 11 10 25 10 14
0 25 -4 25 -10z m135 -32 c105 -1 165 -3 135 -5 l-55 -4 3 -74 4 -75 -47 0
c-25 0 -52 6 -60 13 -7 8 -47 20 -88 27 -72 12 -76 14 -97 52 -12 22 -19 42
-16 45 8 8 9 6 34 -42 l21 -40 1 48 0 47 -35 0 c-19 0 -35 5 -35 11 0 7 9 9
23 5 12 -3 108 -7 212 -8z m115 -50 c1 -32 1 -32 16 -13 8 11 19 27 24 35 5 8
11 12 14 9 4 -3 -5 -23 -20 -44 -14 -21 -28 -54 -31 -72 -10 -59 -23 -35 -23
42 0 43 4 75 10 75 6 0 10 -15 10 -32z m-399 -46 c4 -4 9 -26 13 -49 7 -48 8
-47 -68 -37 l-46 7 0 49 0 50 48 -7 c26 -4 50 -10 53 -13z m399 -122 c0 -23
-5 -29 -31 -34 -74 -14 -89 -5 -89 53 l0 28 60 -10 c56 -9 60 -11 60 -37z
m-560 29 l50 -11 0 -49 0 -49 -35 -1 c-19 -1 -45 -2 -57 -2 -21 -1 -23 3 -26
61 -3 68 -5 67 68 51z m-1289 -26 c-5 -10 -17 -27 -26 -38 -16 -19 -17 -19 -3
5 26 46 29 50 34 50 3 0 0 -8 -5 -17z m213 -1289 c9 -25 7 -34 -8 -34 -19 0
-29 17 -22 35 7 20 22 19 30 -1z m-104 -109 c0 -8 -4 -15 -10 -15 -5 0 -10 7
-10 15 0 8 5 15 10 15 6 0 10 -7 10 -15z"/>
<path d="M2480 3155 c0 -15 4 -24 10 -20 6 3 10 12 10 20 0 8 -4 17 -10 20 -6
4 -10 -5 -10 -20z"/>
<path d="M2640 3160 c0 -11 5 -20 10 -20 6 0 10 9 10 20 0 11 -4 20 -10 20 -5
0 -10 -9 -10 -20z"/>
<path d="M960 3266 c0 -2 11 -6 25 -8 14 -3 25 -1 25 3 0 5 -11 9 -25 9 -14 0
-25 -2 -25 -4z"/>
<path d="M3990 2910 c-11 -22 -23 -40 -26 -40 -3 0 -2 6 2 13 6 9 5 9 -7 0
-11 -8 -24 -8 -57 4 -24 8 -46 12 -50 9 -8 -9 31 -76 44 -76 6 0 9 -10 7 -23
-5 -25 19 -57 42 -57 7 0 20 11 29 25 14 21 19 23 35 13 37 -23 71 38 39 70
-7 7 -11 32 -9 57 3 59 -20 61 -49 5z"/>
<path d="M1860 2413 c-79 -13 -232 -79 -297 -128 -64 -49 -126 -134 -162 -220
-30 -71 -53 -188 -31 -152 6 9 18 17 26 17 8 0 17 7 20 15 4 8 18 15 33 15 20
0 31 9 46 36 23 42 72 75 83 58 4 -6 22 -15 41 -19 33 -7 33 -6 27 19 -6 25 7
36 19 16 4 -7 14 -5 28 5 12 8 36 15 53 15 39 0 64 27 64 71 1 35 23 70 52 81
9 4 30 26 45 50 24 37 37 51 74 78 3 3 9 15 13 28 7 21 5 22 -51 21 -32 -1
-69 -4 -83 -6z m-120 -242 c0 -5 3 -16 6 -25 4 -10 1 -16 -9 -16 -16 0 -30 27
-21 41 7 12 24 12 24 0z"/>
<path d="M4283 2163 c-13 -8 -23 -25 -23 -36 0 -11 -16 -68 -36 -126 -60 -175
-53 -169 -79 -66 -38 147 -62 202 -90 208 -19 3 -25 0 -25 -14 0 -28 -36 -24
-56 6 -19 29 -36 32 -55 9 -11 -13 -8 -19 22 -42 57 -44 139 -135 155 -171 9
-21 15 -72 16 -125 2 -85 0 -95 -31 -154 l-32 -64 -22 24 c-12 13 -38 29 -57
37 -19 7 -50 19 -68 27 -28 12 -37 12 -59 1 l-26 -14 34 -18 c19 -10 61 -31
94 -47 81 -41 85 -47 78 -145 l-6 -83 35 0 35 0 5 78 c3 42 15 107 28 143 18
54 30 72 66 100 83 64 125 113 163 194 43 91 85 141 127 150 55 12 83 27 123
64 39 36 52 61 31 61 -5 0 -18 -9 -28 -20 -11 -11 -56 -36 -102 -55 -45 -20
-95 -44 -109 -55 -15 -10 -47 -58 -72 -106 -39 -78 -99 -154 -120 -154 -4 0 5
31 21 70 43 103 106 341 91 339 -3 0 -16 -7 -28 -16z"/>
<path d="M2136 1751 c-4 -6 -6 -30 -5 -52 2 -25 -2 -43 -10 -48 -7 -5 -11 -22
-9 -42 3 -32 5 -34 37 -32 24 1 39 -5 51 -20 15 -19 21 -20 44 -9 18 8 26 19
26 37 0 15 13 40 30 58 16 18 30 36 30 40 0 14 -28 19 -50 7 -39 -21 -70 -22
-70 -3 0 15 -2 16 -10 3 -8 -13 -10 -13 -10 2 0 25 -45 74 -54 59z"/>
<path d="M2456 1177 c-26 -34 -106 -257 -107 -298 0 -31 -60 95 -78 166 -7 28
-15 56 -17 62 -6 20 -34 3 -34 -21 0 -28 50 -184 84 -260 15 -33 25 -61 23
-63 -9 -8 -104 96 -120 132 -53 116 -62 128 -93 129 l-30 1 34 -50 c18 -27 45
-74 59 -104 27 -55 75 -109 150 -168 30 -23 48 -50 68 -100 24 -59 27 -81 27
-175 0 -111 -26 -222 -58 -248 -33 -28 -12 -32 159 -28 141 4 182 9 225 25 68
26 95 62 87 117 -10 69 -24 77 -25 14 0 -37 -5 -62 -15 -72 -27 -27 -115 -39
-230 -31 -103 7 -107 8 -101 29 20 68 28 141 23 219 -4 81 -3 91 18 116 21 24
120 81 142 81 19 0 123 103 123 121 0 27 -16 24 -36 -6 -19 -29 -119 -87 -181
-106 -23 -6 -52 -23 -64 -35 -30 -32 -35 -30 -54 14 -9 20 -23 52 -31 70 -8
18 -14 56 -14 85 1 52 21 154 36 179 20 33 98 117 120 128 17 9 24 22 24 42 0
35 -7 35 -50 -2 -49 -41 -56 -37 -27 14 23 42 24 45 6 49 -13 4 -27 -5 -43
-26z"/>
<path d="M2628 1193 c7 -3 16 -2 19 1 4 3 -2 6 -13 5 -11 0 -14 -3 -6 -6z"/>
<path d="M1651 411 c-1 -50 65 -158 85 -138 2 2 -5 19 -16 38 -10 18 -30 57
-44 84 l-25 50 0 -34z"/>
</g>
</svg>
